<svg width="32" height="32" viewBox="0 0 32 32" fill="none" xmlns="http://www.w3.org/2000/svg">
<rect width="32" height="32" rx="16" fill="white"/>
<path d="M15.9998 7C11.2028 11.095 8.7998 14.632 8.7998 17.62C8.7998 22.102 12.2198 25 15.9998 25C19.7798 25 23.1998 22.102 23.1998 17.62C23.1998 14.632 20.7968 11.095 15.9998 7ZM12.2468 17.8C12.5798 17.8 12.8498 18.034 12.9128 18.358C13.2818 20.356 14.9648 21.04 16.1888 20.941C16.5758 20.923 16.8998 21.229 16.8998 21.616C16.8998 21.976 16.6118 22.273 16.2518 22.291C14.3348 22.408 12.0938 21.31 11.5808 18.583C11.5652 18.4865 11.5707 18.3878 11.5969 18.2936C11.6232 18.1995 11.6696 18.1121 11.7329 18.0377C11.7963 17.9632 11.875 17.9034 11.9638 17.8624C12.0525 17.8213 12.1491 17.8 12.2468 17.8Z" fill="#00AFAA"/>
</svg>
