<?xml version="1.0" standalone="no"?>
<!DOCTYPE svg PUBLIC "-//W3C//DTD SVG 20010904//EN"
 "http://www.w3.org/TR/2001/REC-SVG-20010904/DTD/svg10.dtd">
<svg version="1.0" xmlns="http://www.w3.org/2000/svg"
 width="700.000000pt" height="700.000000pt" viewBox="0 0 700.000000 700.000000"
 preserveAspectRatio="xMidYMid meet">
<metadata>
Created by potrace 1.14, written by Peter Selinger 2001-2017
</metadata>
<g transform="translate(0.000000,700.000000) scale(0.100000,-0.100000)"
fill="#000000" stroke="none">
<path d="M3315 5307 c-816 -730 -1276 -1384 -1370 -1947 -24 -140 -17 -422 14
-565 73 -340 224 -615 462 -839 475 -447 1200 -551 1786 -258 440 222 731 605
834 1102 30 142 37 425 14 561 -78 473 -418 1011 -1015 1609 -210 210 -520
490 -542 490 -7 -1 -89 -69 -183 -153z m-563 -2218 c31 -16 65 -73 78 -129 44
-193 145 -342 297 -436 106 -67 202 -95 350 -103 132 -7 153 -15 197 -74 28
-38 27 -113 -3 -155 -40 -57 -72 -67 -201 -66 -382 4 -720 228 -866 574 -44
104 -77 243 -69 286 8 44 58 101 99 113 32 10 89 5 118 -10z"/>
</g>
</svg>
